<svg xmlns="http://www.w3.org/2000/svg" width="16" height="16">
    <path fill-rule="evenodd" fill="#888" d="M6.698 2.641a4.03 4.03 0 0 1 4.026 4.026c0 .75-.213 1.486-.615 2.129l-.365.581-.514.417c-.725.588-1.6.898-2.532.898a4.029 4.029 0 0 1-4.025-4.025 4.03 4.03 0 0 1 4.025-4.026zm0-1.789a5.816 5.816 0 0 0 0 11.63c1.388 0 2.66-.487 3.659-1.298.046.081.087.164.155.233l3.623 3.624a1.024 1.024 0 0 0 1.448-1.45l-3.622-3.623a1.022 1.022 0 0 0-.336-.223c.56-.893.888-1.946.888-3.078A5.815 5.815 0 0 0 6.698.852z"/>
</svg>
